<svg width="482" height="334" viewBox="0 0 482 334" fill="none" xmlns="http://www.w3.org/2000/svg">
  <path d="M158.398 74.3051L156.531 71.0015L156.531 71.0013C154.509 67.4247 153.498 65.6364 152.261 64.163C149.155 60.4636 144.86 57.9577 140.111 57.0736C138.219 56.7215 136.165 56.7215 132.056 56.7215C121.042 56.7215 115.535 56.7215 111.933 58.1014C102.691 61.6423 97.2124 71.193 98.821 80.9585C99.4478 84.7643 102.228 89.5183 107.787 99.0261L152.105 174.815C168.092 202.156 176.086 215.827 188.031 215.84C199.976 215.853 208 202.2 224.048 174.895L254.134 123.702C270.085 96.5625 278.061 82.9925 289.963 82.9695C301.866 82.9466 309.894 96.4857 325.949 123.564L355.513 173.426C371.687 200.703 379.773 214.342 391.727 214.275C403.68 214.209 411.614 200.48 427.481 173.024L518.65 15.272C521.126 10.9874 522.364 8.8451 523.94 7.13927C526.806 4.03793 530.546 1.87983 534.665 0.950572C536.93 0.439453 539.405 0.439453 544.353 0.439453C557.674 0.439453 564.334 0.439453 568.58 2.4573C576.385 6.16592 581.093 14.3046 580.417 22.9191C580.049 27.6062 576.729 33.3798 570.088 44.9269L428.064 291.879C411.977 319.851 403.933 333.838 391.86 333.826C379.787 333.815 371.769 319.814 355.734 291.812L326.109 240.078C310.043 212.024 302.011 197.997 289.924 197.997C277.838 197.997 269.806 212.024 253.74 240.078L224.104 291.831C208.073 319.826 200.058 333.823 187.986 333.836C175.915 333.848 167.87 319.868 151.78 291.907L20.8927 64.4546C4.90627 36.6737 -3.08693 22.7833 2.93399 12.372C8.95491 1.96059 24.981 1.96059 57.0331 1.96059H188.639C220.616 1.96059 236.604 1.96059 242.646 12.2624C242.715 12.3798 242.782 12.4978 242.849 12.6166C248.688 23.0347 240.61 36.833 224.456 64.4295L218.41 74.7593C207.815 92.8588 202.517 101.909 195.447 104.478C190.744 106.187 185.584 106.148 180.909 104.368C173.877 101.692 168.718 92.5629 158.398 74.3052L158.398 74.3051Z" fill="#F1F1F1"/>
  <path d="M317.412 14.7087L315.871 17.3275L315.871 17.3281C313.354 21.6069 312.095 23.7464 311.477 25.3561C306.747 37.6716 314.501 51.2285 327.515 53.3959C329.215 53.6792 331.698 53.6792 336.663 53.6792C338.516 53.6792 339.443 53.6792 340.307 53.7511C346.591 54.2744 352.3 57.6135 355.837 62.8338C356.323 63.5513 356.777 64.3592 357.686 65.975L361.145 72.1229C372.578 92.4492 378.295 102.612 386.393 105.016C390.106 106.118 394.053 106.163 397.79 105.148C405.942 102.933 411.893 92.9059 423.796 72.8506L428.579 64.7905C445.08 36.9874 453.331 23.0858 447.42 12.5834C447.386 12.5234 447.352 12.4636 447.317 12.4039C441.303 1.96059 425.137 1.96059 392.806 1.96059H339.701C336.921 1.96059 335.532 1.96059 334.238 2.12291C328.724 2.8151 323.714 5.68051 320.321 10.0827C319.526 11.115 318.821 12.3128 317.412 14.7081L317.412 14.7087Z" fill="#F1F1F1"/>
</svg>