<svg width="346" height="335" viewBox="0 0 346 335" fill="none" xmlns="http://www.w3.org/2000/svg">
  <path d="M188.048 260.356L189.916 263.66L189.916 263.66C191.937 267.236 192.948 269.025 194.185 270.498C197.292 274.198 201.587 276.703 206.336 277.588C208.227 277.94 210.281 277.94 214.39 277.94C225.404 277.94 230.911 277.94 234.513 276.56C243.755 273.019 249.234 263.468 247.625 253.703C246.998 249.897 244.219 245.143 238.659 235.635L194.342 159.846C178.354 132.505 170.36 118.834 158.415 118.821C146.471 118.808 138.447 132.461 122.398 159.766L92.3118 210.959C76.3611 238.099 68.3857 251.669 56.4829 251.692C44.58 251.715 36.5524 238.175 20.4971 211.097L-9.06696 161.235C-25.2404 133.958 -33.3271 120.319 -45.2803 120.386C-57.2336 120.452 -65.1674 134.181 -81.0351 161.637L-172.203 319.389C-174.68 323.674 -175.918 325.816 -177.494 327.522C-180.359 330.623 -184.099 332.781 -188.218 333.711C-190.484 334.222 -192.958 334.222 -197.907 334.222C-211.227 334.222 -217.888 334.222 -222.134 332.204C-229.939 328.495 -234.647 320.356 -233.971 311.742C-233.603 307.055 -230.282 301.281 -223.642 289.734L-81.6176 42.782C-65.5305 14.8097 -57.487 0.823578 -45.4138 0.834747C-33.3406 0.845917 -25.323 14.8469 -9.28766 42.8488L20.3377 94.5827C36.403 122.637 44.4357 136.664 56.5218 136.664C68.6078 136.664 76.6405 122.637 92.7059 94.5826L122.342 42.8301C138.373 14.8354 146.389 0.838104 158.46 0.825409C170.531 0.812714 178.576 14.7931 194.666 42.754L325.554 270.207C341.54 297.987 349.533 311.878 343.512 322.289C337.491 332.701 321.465 332.701 289.413 332.701H157.807C125.83 332.701 109.842 332.701 103.8 322.399C103.732 322.281 103.664 322.163 103.597 322.045C97.7588 311.626 105.836 297.828 121.99 270.232L128.037 259.902C138.631 241.802 143.929 232.753 151 230.183C155.702 228.474 160.862 228.513 165.538 230.293C172.569 232.969 177.729 242.098 188.048 260.356L188.048 260.356Z" fill="#F1F1F1"/>
  <path d="M29.0345 319.952L30.575 317.334L30.5754 317.333C33.0923 313.054 34.3508 310.915 34.969 309.305C39.6988 296.99 31.945 283.433 18.9318 281.265C17.2308 280.982 14.7485 280.982 9.78378 280.982C7.9299 280.982 7.00296 280.982 6.13937 280.91C-0.14444 280.387 -5.85385 277.048 -9.39062 271.827C-9.87668 271.11 -10.3311 270.302 -11.24 268.686L-14.6983 262.538C-26.1318 242.212 -31.8486 232.049 -39.9468 229.645C-43.6598 228.544 -47.6064 228.498 -51.3439 229.513C-59.4958 231.728 -65.4471 241.755 -77.3496 261.811L-82.1331 269.871C-98.6339 297.674 -106.884 311.575 -100.973 322.078C-100.94 322.138 -100.905 322.198 -100.871 322.257C-94.8564 332.701 -78.6909 332.701 -46.3599 332.701H6.74551C9.52499 332.701 10.9148 332.701 12.2079 332.538C17.7225 331.846 22.7325 328.981 26.1251 324.578C26.9206 323.546 27.6252 322.348 29.0342 319.953L29.0345 319.952Z" fill="#F1F1F1"/>
</svg>