<svg width="34" height="19" viewBox="0 0 34 19" fill="none" xmlns="http://www.w3.org/2000/svg">
<path d="M9.57639 4.16715L9.47189 3.98175C9.35882 3.78114 9.30228 3.68084 9.23315 3.5981C9.0574 3.38776 8.81372 3.24539 8.54419 3.19556C8.43816 3.17597 8.32302 3.17597 8.09274 3.17597C7.47696 3.17597 7.16907 3.17597 6.96737 3.25252C6.44312 3.45149 6.13216 3.99279 6.22436 4.54588C6.25984 4.75869 6.41493 5.02466 6.72512 5.5566L6.72512 5.55661L9.2158 9.82785C10.1183 11.3755 10.5695 12.1494 11.2445 12.1501C11.9195 12.1509 12.3725 11.378 13.2784 9.83234L14.9573 6.96766L14.9574 6.96765C15.8578 5.43134 16.308 4.66319 16.9806 4.6619C17.6532 4.6606 18.1064 5.42702 19.0127 6.95985L20.6621 9.74943C21.5751 11.2935 22.0316 12.0656 22.7071 12.0618C23.3825 12.0581 23.8304 11.281 24.7261 9.72676L29.8495 0.836987C29.9881 0.596424 30.0574 0.476142 30.1456 0.380231C30.3079 0.203697 30.5203 0.0809754 30.7543 0.0285064C30.8814 0 31.0202 0 31.2979 0C32.0434 0 32.4161 0 32.6542 0.112177C33.0975 0.320984 33.3649 0.782655 33.3255 1.27105C33.3044 1.53342 33.1189 1.85674 32.7481 2.50338L32.7481 2.50343L24.759 16.4335C23.8509 18.0168 23.3969 18.8085 22.7146 18.8079C22.0324 18.8073 21.5798 18.0147 20.6747 16.4297L19.0216 13.535C18.1148 11.947 17.6613 11.153 16.9784 11.153C16.2954 11.153 15.842 11.947 14.9351 13.535L13.2815 16.4307C12.3766 18.0154 11.9241 18.8077 11.242 18.8084C10.5599 18.8091 10.1057 18.0178 9.19748 16.435L1.83772 3.60989C0.938586 2.04305 0.489017 1.25963 0.828891 0.672735C1.16876 0.0858369 2.07201 0.0858369 3.87851 0.0858369H11.2788C13.0757 0.0858369 13.9742 0.0858369 14.3158 0.663607C14.3208 0.672177 14.3258 0.680811 14.3306 0.689507C14.6574 1.27576 14.2045 2.0517 13.2986 3.60358L12.9547 4.19268C12.3614 5.20911 12.0647 5.71732 11.6694 5.86358C11.4002 5.96317 11.1039 5.96093 10.8363 5.85728C10.4432 5.70507 10.1543 5.19243 9.5764 4.16716L9.57639 4.16715Z" fill="url(#paint0_linear_1063_33660)"/>
<path d="M18.5243 0.806731L18.4352 0.958629C18.2958 1.19631 18.226 1.31516 18.1916 1.40451C17.923 2.10088 18.3625 2.8681 19.099 2.9888C19.1935 3.00429 19.3313 3.00429 19.6068 3.00429C19.71 3.00429 19.7616 3.00429 19.8096 3.00824C20.1657 3.03747 20.4892 3.22692 20.6889 3.52318C20.7158 3.56315 20.7411 3.60814 20.7915 3.69811L20.9855 4.04396C21.6261 5.18593 21.9464 5.75692 22.3995 5.89429C22.6132 5.95908 22.8409 5.96172 23.056 5.9019C23.5122 5.77508 23.8456 5.21167 24.5125 4.08487L24.7853 3.62393C25.7107 2.0604 26.1733 1.27864 25.8425 0.687635L25.8333 0.671567C25.4932 0.0858369 24.5848 0.0858369 22.768 0.0858369H19.7829C19.6259 0.0858369 19.5474 0.0858369 19.4743 0.095018C19.1628 0.13417 18.8798 0.296242 18.6884 0.545159C18.6435 0.603525 18.6038 0.671251 18.5243 0.806694L18.5243 0.806731Z" fill="url(#paint1_linear_1063_33660)"/>
<defs>
<linearGradient id="paint0_linear_1063_33660" x1="16.9996" y1="0" x2="16.9996" y2="20" gradientUnits="userSpaceOnUse">
<stop stop-color="#F1F1F1"/>
<stop offset="1" stop-color="white"/>
</linearGradient>
<linearGradient id="paint1_linear_1063_33660" x1="16.9996" y1="0" x2="16.9996" y2="20" gradientUnits="userSpaceOnUse">
<stop stop-color="#F1F1F1"/>
<stop offset="1" stop-color="white"/>
</linearGradient>
</defs>
</svg>
