<svg
                  width="49"
                  height="49"
                  viewBox="0 0 49 49"
                  fill="none"
                  xmlns="http://www.w3.org/2000/svg"
                >
                  <path
                    d="M16.22 23.618H6.84004C7.00004 14.278 8.84004 12.738 14.58 9.33801C15.24 8.93801 15.46 8.09801 15.06 7.41801C14.9679 7.26057 14.8454 7.12304 14.6995 7.01345C14.5537 6.90387 14.3875 6.82442 14.2107 6.77974C14.0338 6.73506 13.8498 6.72604 13.6694 6.75322C13.489 6.78039 13.3159 6.84321 13.16 6.93801C6.40004 10.938 4.04004 13.378 4.04004 24.998V35.778C4.04004 39.198 6.82004 41.958 10.22 41.958H16.22C19.74 41.958 22.4 39.298 22.4 35.778V29.778C22.4 26.278 19.74 23.618 16.22 23.618ZM37.858 23.618H28.478C28.638 14.278 30.478 12.738 36.218 9.33801C36.878 8.93801 37.098 8.09801 36.698 7.41801C36.6038 7.26009 36.4793 7.12233 36.3317 7.01267C36.184 6.903 36.0162 6.82359 35.8378 6.77899C35.6594 6.73438 35.4739 6.72547 35.292 6.75276C35.1102 6.78005 34.9355 6.84301 34.778 6.93801C28.018 10.938 25.658 13.378 25.658 25.018V35.798C25.658 39.218 28.438 41.978 31.838 41.978H37.838C41.358 41.978 44.018 39.318 44.018 35.798V29.798C44.038 26.278 41.378 23.618 37.858 23.618Z"
                    fill="#444444"
                  />
                </svg>