<svg width="581" height="334" viewBox="0 0 581 334" fill="none" xmlns="http://www.w3.org/2000/svg">
<path d="M158.168 74.2943L156.3 70.9908L156.3 70.9905C154.279 67.4139 153.268 65.6256 152.031 64.1522C148.924 60.4528 144.629 57.947 139.88 57.0629C137.989 56.7108 135.934 56.7108 131.826 56.7108C120.812 56.7108 115.305 56.7108 111.703 58.0907C102.461 61.6316 96.9819 71.1822 98.5905 80.9478C99.2174 84.7536 101.997 89.5075 107.557 99.0154L151.874 174.804C167.862 202.145 175.856 215.816 187.8 215.829C199.745 215.842 207.769 202.19 223.817 174.884L253.904 123.692C269.855 96.5517 277.83 82.9817 289.733 82.9588C301.636 82.9358 309.663 96.475 325.719 123.553L355.283 173.415C371.456 200.693 379.543 214.331 391.496 214.265C403.449 214.198 411.383 200.47 427.251 173.013L518.419 15.2613C520.895 10.9767 522.134 8.83435 523.71 7.12853C526.575 4.02719 530.315 1.86909 534.434 0.93983C536.7 0.428711 539.174 0.428711 544.123 0.428711C557.443 0.428711 564.103 0.428711 568.35 2.44656C576.155 6.15518 580.863 14.2939 580.187 22.9084C579.819 27.5955 576.498 33.369 569.857 44.9161L427.833 291.868C411.746 319.841 403.703 333.827 391.63 333.816C379.556 333.804 371.539 319.803 355.503 291.802L325.878 240.068C309.813 212.013 301.78 197.986 289.694 197.986C277.608 197.986 269.575 212.013 253.51 240.068L223.874 291.82C207.843 319.815 199.827 333.812 187.756 333.825C175.684 333.838 167.639 319.857 151.549 291.896L20.6622 64.4438C4.6758 36.663 -3.3174 22.7726 2.70352 12.3612C8.72444 1.94985 24.7505 1.94985 56.8027 1.94985H188.409C220.385 1.94985 236.374 1.94985 242.415 12.2516C242.484 12.369 242.552 12.4871 242.618 12.6058C248.457 23.0239 240.38 36.8222 224.226 64.4188L218.179 74.7486C207.584 92.8481 202.287 101.898 195.216 104.468C190.514 106.176 185.354 106.137 180.678 104.357C173.647 101.681 168.487 92.5522 158.168 74.2945L158.168 74.2943Z" fill="#F1F1F1"/>
<path d="M317.181 14.698L315.641 17.3167L315.64 17.3173C313.124 21.5962 311.865 23.7357 311.247 25.3453C306.517 37.6608 314.271 51.2178 327.284 53.3852C328.985 53.6685 331.467 53.6685 336.432 53.6685C338.286 53.6685 339.213 53.6685 340.076 53.7404C346.36 54.2637 352.07 57.6028 355.606 62.8231C356.092 63.5405 356.547 64.3484 357.456 65.9642L360.914 72.1122C372.348 92.4385 378.064 102.602 386.163 105.005C389.876 106.107 393.822 106.153 397.56 105.137C405.712 102.923 411.663 92.8951 423.565 72.8399L428.349 64.7798C444.85 36.9766 453.1 23.075 447.189 12.5726C447.155 12.5126 447.121 12.4528 447.087 12.3932C441.072 1.94985 424.907 1.94985 392.576 1.94985H339.47C336.691 1.94985 335.301 1.94985 334.008 2.11217C328.493 2.80436 323.483 5.66976 320.091 10.072C319.295 11.1043 318.591 12.302 317.182 14.6974L317.181 14.698Z" fill="#F1F1F1"/>
</svg>